<?xml version="1.0" encoding="UTF-8"?>
<!DOCTYPE svg PUBLIC "-//W3C//DTD SVG 1.1//EN" "http://www.w3.org/Graphics/SVG/1.1/DTD/svg11.dtd">
<svg xmlns="http://www.w3.org/2000/svg" version="1.1" width="436px" height="436px" style="shape-rendering:geometricPrecision; text-rendering:geometricPrecision; image-rendering:optimizeQuality; fill-rule:evenodd; clip-rule:evenodd" xmlns:xlink="http://www.w3.org/1999/xlink">
<g><path style="opacity:0.992" fill="#000" d="M 196.5,-0.5 C 210.5,-0.5 224.5,-0.5 238.5,-0.5C 318.163,9.90041 376.663,50.5671 414,121.5C 425.37,145.427 432.537,170.427 435.5,196.5C 435.5,210.5 435.5,224.5 435.5,238.5C 425.1,318.163 384.433,376.663 313.5,414C 289.573,425.37 264.573,432.537 238.5,435.5C 224.5,435.5 210.5,435.5 196.5,435.5C 116.837,425.1 58.3373,384.433 21,313.5C 9.62973,289.573 2.46306,264.573 -0.5,238.5C -0.5,224.5 -0.5,210.5 -0.5,196.5C 9.90041,116.837 50.5671,58.3373 121.5,21C 145.427,9.62973 170.427,2.46306 196.5,-0.5 Z"/></g>
<g><path style="opacity:1" fill="#ffff" d="M 355.5,312.5 C 349.568,312.9 343.901,311.9 338.5,309.5C 337.817,309.863 337.15,310.196 336.5,310.5C 333.572,309.409 331.406,307.409 330,304.5C 329.333,263.5 329.333,222.5 330,181.5C 334.575,174.071 341.242,171.404 350,173.5C 363.945,171.831 375.445,176.164 384.5,186.5C 384.833,185.333 385.167,184.167 385.5,183C 374.69,145.214 353.19,115.047 321,92.5C 323.169,101.371 325.169,110.371 327,119.5C 329.076,139.651 325.409,158.651 316,176.5C 304.493,194.182 292.493,211.515 280,228.5C 271.816,242.384 266.816,257.384 265,273.5C 263.352,282.211 263.352,290.878 265,299.5C 269.818,302.903 270.652,307.069 267.5,312C 235.5,312.667 203.5,312.667 171.5,312C 170.02,310.701 169.354,309.034 169.5,307C 173.907,300.428 175.907,293.095 175.5,285C 175.549,279.062 174.882,273.229 173.5,267.5C 173.59,264.848 172.924,262.515 171.5,260.5C 168.16,246.991 162.326,234.658 154,223.5C 144.09,210.678 134.423,197.678 125,184.5C 112.966,162.348 108.966,138.682 113,113.5C 114.236,106.284 116.736,99.6174 120.5,93.5C 120,93.1667 119.5,92.8333 119,92.5C 114.601,94.616 110.434,97.116 106.5,100C 86.0224,118.476 70.1891,140.309 59,165.5C 55.1514,173.077 53.4848,181.077 54,189.5C 57.1311,185.367 60.6311,181.534 64.5,178C 78.8333,172 93.1667,172 107.5,178C 108.126,178.75 108.626,179.584 109,180.5C 109.667,221.5 109.667,262.5 109,303.5C 107.412,308.052 104.245,310.885 99.5,312C 83.1447,315.871 68.978,312.038 57,300.5C 55.1319,297.395 53.9652,294.062 53.5,290.5C 47.359,289.364 41.0256,288.697 34.5,288.5C 25.7093,286.207 20.5426,280.54 19,271.5C 17.3971,252.21 17.0638,232.877 18,213.5C 21.9062,204.754 28.4062,199.088 37.5,196.5C 47.9502,137.552 79.9502,94.7186 133.5,68C 177.623,25.8592 226.623,19.1926 280.5,48C 288.414,53.2436 295.748,59.2436 302.5,66C 348.797,88.6255 380.631,124.125 398,172.5C 398.595,180.545 400.595,188.212 404,195.5C 407.552,198.719 411.385,201.552 415.5,204C 417.359,205.558 418.859,207.391 420,209.5C 421.641,228.743 421.975,248.077 421,267.5C 419.638,277.512 414.472,284.679 405.5,289C 398.897,290.274 392.23,290.774 385.5,290.5C 383.765,302.069 377.098,308.902 365.5,311C 362.243,312.043 358.91,312.543 355.5,312.5 Z"/></g>
<g><path style="opacity:1" fill="#000" d="M 190.5,298.5 C 188.694,286.749 187.36,275.083 186.5,263.5C 184.893,253.183 181.393,243.516 176,234.5C 164.987,216.47 152.987,199.136 140,182.5C 115.541,138.469 121.708,99.3021 158.5,65C 185.087,44.2946 214.753,38.2946 247.5,47C 293.906,63.2715 315.739,96.1048 313,145.5C 308.273,162.62 300.606,178.287 290,192.5C 276.593,208.594 265.593,226.26 257,245.5C 251.469,263.416 249.302,281.75 250.5,300.5C 246.833,300.5 243.167,300.5 239.5,300.5C 239.5,275.167 239.5,249.833 239.5,224.5C 248.402,224.487 250.402,220.987 245.5,214C 236.93,212.861 228.264,212.361 219.5,212.5C 210.736,212.361 202.07,212.861 193.5,214C 189.382,221.118 191.382,224.618 199.5,224.5C 199.5,249.833 199.5,275.167 199.5,300.5C 195.988,301.055 192.988,300.388 190.5,298.5 Z"/></g>
<g><path style="opacity:1" fill="#6d6c6b" d="M 184.5,83.5 C 187.625,82.5206 190.958,82.1872 194.5,82.5C 194.5,85.1667 194.5,87.8333 194.5,90.5C 193.532,88.3926 193.198,86.0593 193.5,83.5C 190.5,83.5 187.5,83.5 184.5,83.5 Z"/></g>
<g><path style="opacity:1" fill="#ffff" d="M 184.5,83.5 C 187.5,83.5 190.5,83.5 193.5,83.5C 193.198,86.0593 193.532,88.3926 194.5,90.5C 196.693,92.5213 199.193,94.1879 202,95.5C 204.818,94.09 207.485,92.4234 210,90.5C 212.167,92.6667 214.333,94.8333 216.5,97C 214.759,98.6196 212.925,100.12 211,101.5C 210.333,104.833 210.333,108.167 211,111.5C 214.085,112.432 217.252,113.099 220.5,113.5C 219.841,116.455 219.508,119.455 219.5,122.5C 212.897,121.058 207.564,122.891 203.5,128C 204.437,130.707 205.77,133.207 207.5,135.5C 204.833,137.167 202.167,138.833 199.5,140.5C 197.684,138.882 196.351,136.882 195.5,134.5C 192.354,133.711 189.187,133.045 186,132.5C 185.228,132.645 184.561,132.978 184,133.5C 183.06,135.942 181.894,138.275 180.5,140.5C 178.205,139.568 175.871,138.735 173.5,138C 172.941,137.275 172.608,136.442 172.5,135.5C 175.408,130.792 174.908,126.459 171,122.5C 167.542,122.312 164.042,121.979 160.5,121.5C 157.048,115.834 158.715,112.834 165.5,112.5C 166.829,109.842 168.162,107.176 169.5,104.5C 167.36,101.939 165.027,99.6054 162.5,97.5C 164.333,95.1667 166.167,92.8333 168,90.5C 170.114,92.2954 172.448,93.6287 175,94.5C 178.112,93.5169 181.278,92.8503 184.5,92.5C 184.5,89.5 184.5,86.5 184.5,83.5 Z"/></g>
<g><path style="opacity:1" fill="#000" d="M 186.5,103.5 C 195.636,103.93 198.636,108.264 195.5,116.5C 190.59,120.817 186.09,120.483 182,115.5C 180.309,110.131 181.809,106.131 186.5,103.5 Z"/></g>
<g><path style="opacity:1" fill="#ffff" d="M 241.5,78.5 C 244.167,78.5 246.833,78.5 249.5,78.5C 248.483,84.2864 250.816,87.1197 256.5,87C 259.154,83.6515 261.654,83.8182 264,87.5C 262.581,89.8966 261.415,92.5633 260.5,95.5C 260.78,99.8208 263.114,101.487 267.5,100.5C 267.643,102.262 267.309,103.929 266.5,105.5C 258.141,105.483 255.475,109.15 258.5,116.5C 256.596,117.409 254.762,118.409 253,119.5C 251.48,118.303 250.313,116.803 249.5,115C 244.92,113.628 241.586,114.962 239.5,119C 233.493,119.308 232.16,116.974 235.5,112C 234.516,110.343 233.516,108.677 232.5,107C 229.881,107.083 227.214,107.25 224.5,107.5C 224.326,105.139 223.993,102.806 223.5,100.5C 225.199,100.66 226.866,100.494 228.5,100C 229.147,98.3905 229.98,96.8905 231,95.5C 231.749,94.365 231.583,93.365 230.5,92.5C 225.627,90.5431 225.294,88.0431 229.5,85C 231.76,84.9558 233.76,85.7892 235.5,87.5C 237.323,86.2528 239.323,85.5861 241.5,85.5C 241.5,83.1667 241.5,80.8333 241.5,78.5 Z"/></g>
<g><path style="opacity:1" fill="#000" d="M 241.5,91.5 C 250.211,90.3803 254.044,94.047 253,102.5C 248,107.833 243,107.833 238,102.5C 236.662,97.9597 237.829,94.293 241.5,91.5 Z"/></g>
<g><path style="opacity:1" fill="#ffff" d="M 237.5,128.5 C 240.524,129.342 243.524,130.342 246.5,131.5C 243.212,137.228 244.212,142.061 249.5,146C 252.141,145.845 254.807,145.345 257.5,144.5C 260.77,146.364 261.77,149.031 260.5,152.5C 258.358,153.601 256.192,154.601 254,155.5C 253.551,158.132 252.717,160.632 251.5,163C 253.692,165.78 256.359,168.114 259.5,170C 257.667,172.5 255.833,175 254,177.5C 251.543,176.022 249.043,174.689 246.5,173.5C 243.87,174.378 241.203,175.045 238.5,175.5C 238.5,179.167 238.5,182.833 238.5,186.5C 235.167,186.5 231.833,186.5 228.5,186.5C 228.663,184.143 228.497,181.81 228,179.5C 225.325,177.554 222.492,175.887 219.5,174.5C 217.144,176.69 214.644,178.69 212,180.5C 210.457,178.622 208.624,177.122 206.5,176C 205.549,175.282 205.383,174.449 206,173.5C 211.297,169.151 211.797,164.484 207.5,159.5C 205.218,158.777 202.884,158.443 200.5,158.5C 200.5,155.167 200.5,151.833 200.5,148.5C 203.469,149.329 206.469,149.495 209.5,149C 211.333,147.167 213.167,145.333 215,143.5C 214.6,140.509 213.433,137.676 211.5,135C 216.051,128.988 220.051,129.155 223.5,135.5C 227.107,136.489 230.774,136.823 234.5,136.5C 234.94,133.62 235.94,130.954 237.5,128.5 Z"/></g>
<g><path style="opacity:1" fill="#000" d="M 226.5,150.5 C 233.6,148.557 237.933,151.057 239.5,158C 237.691,163.909 233.691,166.243 227.5,165C 222.577,160.456 222.244,155.623 226.5,150.5 Z"/></g>
<g><path style="opacity:1" fill="#000" d="M 76.5,186.5 C 83.1667,186.5 89.8333,186.5 96.5,186.5C 96.5,223.833 96.5,261.167 96.5,298.5C 88.8261,298.666 81.1594,298.5 73.5,298C 70.2716,296.437 68.1049,293.937 67,290.5C 65.1426,259.16 65.1426,227.827 67,196.5C 68.3499,191.319 71.5166,187.986 76.5,186.5 Z"/></g>
<g><path style="opacity:1" fill="#000" d="M 344.5,186.5 C 350.842,186.334 357.175,186.5 363.5,187C 369.307,189.143 372.474,193.309 373,199.5C 373.389,230.171 373.055,260.838 372,291.5C 370.413,294.756 367.913,296.923 364.5,298C 357.842,298.5 351.175,298.666 344.5,298.5C 344.5,261.167 344.5,223.833 344.5,186.5 Z"/></g>
<g><path style="opacity:1" fill="#000" d="M 50.5,206.5 C 50.5,230.167 50.5,253.833 50.5,277.5C 47.5,277.5 44.5,277.5 41.5,277.5C 36.6744,276.833 33.5078,274.166 32,269.5C 31.3333,251.833 31.3333,234.167 32,216.5C 36.2161,209.695 42.3827,206.362 50.5,206.5 Z"/></g>
<g><path style="opacity:1" fill="#fff" d="M 50.5,206.5 C 51.4976,230.328 51.8309,254.328 51.5,278.5C 47.9581,278.813 44.6248,278.479 41.5,277.5C 44.5,277.5 47.5,277.5 50.5,277.5C 50.5,253.833 50.5,230.167 50.5,206.5 Z"/></g>
<g><path style="opacity:1" fill="#000" d="M 388.5,206.5 C 395.605,207.141 401.772,209.808 407,214.5C 407.667,232.833 407.667,251.167 407,269.5C 405.531,274.133 402.364,276.8 397.5,277.5C 394.5,277.5 391.5,277.5 388.5,277.5C 388.5,253.833 388.5,230.167 388.5,206.5 Z"/></g>
<g><path style="opacity:1" fill="#fff" d="M 388.5,206.5 C 388.5,230.167 388.5,253.833 388.5,277.5C 391.5,277.5 394.5,277.5 397.5,277.5C 394.375,278.479 391.042,278.813 387.5,278.5C 387.169,254.328 387.502,230.328 388.5,206.5 Z"/></g>
<g><path style="opacity:1" fill="#000" d="M 215.5,225.5 C 218.833,225.5 222.167,225.5 225.5,225.5C 225.5,250.167 225.5,274.833 225.5,299.5C 222.167,299.5 218.833,299.5 215.5,299.5C 215.5,274.833 215.5,250.167 215.5,225.5 Z"/></g>
<g><path style="opacity:1" fill="#fff" d="M 171.5,260.5 C 172.924,262.515 173.59,264.848 173.5,267.5C 172.076,265.485 171.41,263.152 171.5,260.5 Z"/></g>
<g><path style="opacity:1" fill="#dbdbdb" d="M 215.5,225.5 C 215.5,250.167 215.5,274.833 215.5,299.5C 218.833,299.5 222.167,299.5 225.5,299.5C 222.038,300.482 218.371,300.815 214.5,300.5C 214.169,275.328 214.502,250.328 215.5,225.5 Z"/></g>
<g><path style="opacity:1" fill="#fff" d="M 34.5,288.5 C 41.0256,288.697 47.359,289.364 53.5,290.5C 46.9277,290.761 40.5944,290.094 34.5,288.5 Z"/></g>
<g><path style="opacity:1" fill="#fff" d="M 186.5,263.5 C 187.36,275.083 188.694,286.749 190.5,298.5C 189.778,298.918 189.278,299.584 189,300.5C 186.833,299 187,297.833 189.5,297C 187.777,296.225 186.777,294.892 186.5,293C 186.953,283.412 186.953,273.579 186.5,263.5 Z"/></g>
<g><path style="opacity:1" fill="#fff" d="M 355.5,312.5 C 351.019,313.648 346.352,313.815 341.5,313C 339.347,312.901 337.681,312.067 336.5,310.5C 337.15,310.196 337.817,309.863 338.5,309.5C 343.901,311.9 349.568,312.9 355.5,312.5 Z"/></g>
<g><path style="opacity:1" fill="#fff" d="M 177.5,323.5 C 205.502,323.333 233.502,323.5 261.5,324C 269.094,327.848 269.427,332.181 262.5,337C 233.833,337.667 205.167,337.667 176.5,337C 173.733,335.317 172.066,332.817 171.5,329.5C 173.215,327.118 175.215,325.118 177.5,323.5 Z"/></g>
<g><path style="opacity:1" fill="#fff" d="M 195.5,347.5 C 211.503,347.333 227.503,347.5 243.5,348C 250.167,352 250.167,356 243.5,360C 227.833,360.667 212.167,360.667 196.5,360C 190.272,356.169 189.939,352.002 195.5,347.5 Z"/></g>
</svg>
