
<?xml version="1.0" standalone="no"?>
<!DOCTYPE svg PUBLIC "-//W3C//DTD SVG 20010904//EN"
 "http://www.w3.org/TR/2001/REC-SVG-20010904/DTD/svg10.dtd">
<svg version="1.0" xmlns="http://www.w3.org/2000/svg"
 width="735.000000pt" height="616.000000pt" viewBox="0 0 735.000000 616.000000"
 preserveAspectRatio="xMidYMid meet">

<g transform="translate(0.000000,616.000000) scale(0.100000,-0.100000)"
fill="#000000" stroke="none">
<path d="M3492 6149 c-433 -38 -843 -213 -1172 -499 -132 -115 -213 -175 -315
-233 -44 -25 -129 -73 -190 -107 -194 -110 -378 -255 -579 -456 -420 -420
-714 -969 -832 -1553 -14 -69 -26 -126 -27 -126 -1 -1 -36 -17 -77 -37 -85
-41 -185 -136 -236 -223 l-29 -50 -8 -370 c-10 -522 0 -666 56 -789 68 -149
203 -214 477 -232 l106 -7 12 -51 c42 -176 270 -325 545 -356 224 -26 418 54
457 187 8 27 10 345 8 1120 l-3 1082 -30 31 c-73 77 -181 104 -390 97 -276 -8
-374 -46 -507 -196 l-83 -95 -3 34 c-4 41 31 198 65 295 190 529 716 1220
1064 1396 86 43 90 40 53 -38 -35 -72 -76 -195 -93 -281 -38 -186 -38 -620 -2
-798 61 -297 158 -476 504 -928 237 -310 319 -433 408 -611 158 -320 242 -732
195 -956 -20 -95 -50 -149 -81 -149 -24 0 -25 -2 -25 -65 0 -57 3 -69 25 -90
l24 -25 861 0 c847 0 860 0 880 20 11 11 21 35 21 53 3 78 -6 101 -50 130 -26
17 -43 39 -51 63 -20 61 -6 262 35 494 91 518 117 572 577 1217 311 435 385
561 458 782 57 173 74 284 74 496 0 211 -16 319 -75 501 -41 128 -61 214 -49
214 4 0 40 -23 81 -52 362 -253 676 -631 908 -1097 99 -197 169 -393 186 -521
l8 -55 -79 80 c-86 87 -162 134 -260 161 -47 12 -107 16 -297 15 -226 -1 -241
-2 -278 -23 -51 -28 -84 -78 -104 -154 -13 -54 -15 -186 -13 -1100 l3 -1040
25 -49 c28 -54 93 -106 158 -126 69 -21 242 -23 352 -4 289 48 417 138 470
330 l17 60 149 7 c194 8 276 37 357 127 127 141 155 332 134 921 -12 331 -15
369 -34 410 -25 55 -64 93 -167 162 -44 29 -95 72 -113 96 -38 49 -74 162 -98
299 -19 112 -63 240 -148 434 -209 475 -507 849 -949 1192 -172 133 -283 207
-451 300 -145 80 -220 134 -382 277 -210 185 -517 341 -811 411 -190 45 -469
65 -662 48z m343 -229 c278 -26 528 -112 774 -265 448 -279 708 -727 751
-1294 29 -381 -99 -684 -544 -1286 -454 -614 -568 -921 -592 -1589 l-7 -196
-99 0 -98 0 0 678 0 679 55 12 c76 17 115 51 115 101 0 47 -44 97 -93 104 -76
11 -688 24 -763 16 -133 -14 -178 -48 -177 -132 1 -65 21 -84 98 -93 l55 -7 0
-679 0 -679 -79 0 -79 0 -11 51 c-28 130 -41 231 -51 396 -6 98 -15 207 -21
243 -39 263 -274 696 -623 1148 -346 449 -457 701 -473 1077 -24 577 243 1096
732 1424 334 223 739 327 1130 291z m-2377 -3582 l-3 -1013 -169 -3 c-192 -3
-253 9 -310 58 -63 56 -68 82 -78 410 -5 162 -7 504 -4 760 6 595 17 670 108
743 56 45 113 56 296 56 l162 1 -2 -1012z m4827 990 c57 -19 111 -76 129 -139
34 -114 38 -259 27 -984 -7 -385 -14 -714 -16 -730 -7 -45 -61 -104 -119 -131
-47 -22 -64 -24 -218 -24 l-168 0 0 1016 0 1017 163 -6 c93 -3 179 -11 202
-19z m-5655 -994 l0 -647 -79 7 c-144 12 -214 45 -254 119 -22 41 -22 49 -25
477 -2 295 1 449 8 480 16 65 53 115 107 147 52 30 158 61 211 62 l32 1 0
-646z m6243 616 c74 -23 139 -67 167 -113 19 -31 20 -53 20 -500 0 -503 -1
-509 -53 -565 -45 -48 -151 -82 -259 -82 l-38 0 0 646 0 647 50 -7 c28 -4 79
-16 113 -26z m-3115 -306 l22 -6 -1 -522 c-1 -286 -4 -588 -8 -671 l-6 -150
-91 -3 -91 -3 -6 278 c-4 153 -7 459 -7 681 l0 402 83 0 c45 0 92 -3 105 -6z"/>
<path d="M4068 5228 l-3 -62 -59 -17 -60 -18 -40 29 c-22 17 -43 30 -46 30 -4
0 -22 -21 -40 -47 l-33 -46 22 -18 c12 -10 34 -27 49 -38 l26 -19 -25 -58
c-24 -56 -27 -58 -72 -69 -53 -11 -53 -10 -36 -78 l11 -48 42 7 c80 15 87 13
119 -40 l30 -48 -22 -45 c-12 -25 -21 -47 -19 -48 4 -4 107 -45 113 -45 3 0
16 23 30 50 27 54 30 54 109 44 44 -6 49 -10 69 -50 11 -24 25 -44 29 -44 5 0
31 11 58 25 l50 25 -27 55 -27 54 45 40 c47 43 52 44 115 32 l42 -8 11 55 c13
64 10 68 -57 78 -51 8 -62 24 -62 91 0 44 4 50 40 77 l39 29 -36 43 c-19 24
-40 44 -45 44 -6 0 -31 -15 -57 -34 l-46 -33 -52 34 c-52 33 -53 34 -53 83 l0
50 -65 0 -64 0 -3 -62z m132 -186 c82 -41 106 -142 49 -207 -90 -102 -259 -45
-259 88 0 67 74 137 145 137 17 0 46 -8 65 -18z"/>
<path d="M3098 5213 l-68 -4 0 -84 0 -84 -37 -10 c-21 -6 -60 -17 -87 -25
l-49 -15 -62 44 -61 44 -52 -69 -51 -68 69 -53 69 -52 -15 -36 c-9 -20 -23
-54 -32 -76 -19 -49 -21 -51 -99 -65 -35 -7 -63 -17 -63 -22 0 -8 40 -149 44
-155 1 -1 40 7 87 16 l86 18 42 -67 c22 -37 41 -72 41 -78 0 -6 -11 -37 -25
-68 -14 -32 -22 -61 -18 -65 9 -8 133 -59 144 -59 4 0 25 31 46 70 42 77 37
75 145 59 l74 -11 33 -64 33 -63 79 39 79 40 -35 70 c-19 38 -35 74 -35 79 0
5 28 34 63 64 l63 56 74 -15 c41 -8 75 -14 76 -14 3 0 26 162 23 164 -2 2 -40
12 -84 22 l-80 19 -9 84 -8 85 28 20 c16 12 42 33 59 48 l30 27 -60 60 -60 60
-68 -50 -68 -50 -74 47 -75 46 0 74 c0 71 -1 74 -22 72 -13 -1 -53 -3 -90 -5z
m103 -406 c76 -50 86 -138 24 -205 -33 -36 -35 -37 -105 -37 -70 0 -72 1 -105
37 -44 47 -53 95 -29 145 26 52 75 83 134 83 32 0 58 -7 81 -23z"/>
<path d="M3960 4325 c-17 -37 -30 -71 -30 -76 0 -10 -62 -12 -137 -3 -50 6
-53 8 -88 65 -20 33 -38 59 -40 59 -4 0 -136 -79 -144 -86 -2 -2 15 -35 39
-75 l42 -71 -63 -64 c-52 -53 -69 -64 -89 -60 -14 3 -46 7 -72 11 l-47 6 -6
-48 c-3 -26 -8 -64 -10 -84 l-5 -37 85 -12 c47 -7 87 -16 90 -20 3 -4 10 -43
16 -86 l12 -78 -54 -49 -54 -48 64 -59 64 -59 65 57 64 56 76 -41 77 -42 9
-71 9 -72 71 6 c113 11 107 5 100 99 l-7 82 85 29 85 30 62 -38 c34 -21 64
-37 65 -35 10 12 86 133 86 138 0 3 -32 26 -70 51 -38 25 -68 50 -66 55 2 6
14 42 27 82 l23 72 68 21 c38 12 68 26 68 34 0 11 -48 136 -55 144 -2 2 -34
-6 -73 -17 -38 -12 -76 -21 -85 -21 -14 0 -107 119 -107 137 0 5 11 37 24 71
l24 62 -66 20 c-37 11 -75 23 -85 26 -14 4 -23 -9 -47 -61z m-14 -341 c95 -45
98 -191 3 -239 -98 -51 -219 14 -219 119 0 104 115 168 216 120z"/>
<path d="M2935 871 c-43 -11 -65 -25 -103 -64 -33 -34 -33 -35 -21 -77 20 -66
55 -97 120 -105 30 -3 381 -5 781 -3 719 3 727 3 755 24 32 24 62 78 63 113 0
35 -67 95 -123 110 -52 12 -1419 14 -1472 2z"/>
<path d="M3257 436 c-66 -18 -100 -53 -100 -103 0 -52 15 -77 56 -97 71 -33
166 -38 537 -25 391 13 401 15 426 76 19 45 11 83 -27 119 l-30 29 -217 7
c-350 10 -591 8 -645 -6z"/>
</g>
</svg>
