<?xml version="1.0" encoding="UTF-8"?>
<!DOCTYPE svg PUBLIC "-//W3C//DTD SVG 1.1//EN" "http://www.w3.org/Graphics/SVG/1.1/DTD/svg11.dtd">
<svg xmlns="http://www.w3.org/2000/svg" version="1.1" width="1235px" height="390px" style="shape-rendering:geometricPrecision; text-rendering:geometricPrecision; image-rendering:optimizeQuality; fill-rule:evenodd; clip-rule:evenodd" xmlns:xlink="http://www.w3.org/1999/xlink">
<g><path style="opacity:1" fill="#5f6368" d="M 28.5,-0.5 C 74.1667,-0.5 119.833,-0.5 165.5,-0.5C 216.771,6.92715 235.604,35.5938 222,85.5C 216.221,97.6118 207.388,106.779 195.5,113C 227.372,121.538 241.872,142.371 239,175.5C 233.672,207.162 215.172,225.996 183.5,232C 131.859,233.464 80.1926,233.964 28.5,233.5C 28.5,200.833 28.5,168.167 28.5,135.5C 18.8333,135.5 9.16667,135.5 -0.5,135.5C -0.5,122.167 -0.5,108.833 -0.5,95.5C 9.16667,95.5 18.8333,95.5 28.5,95.5C 28.5,63.5 28.5,31.5 28.5,-0.5 Z M 71.5,39.5 C 98.5021,39.3334 125.502,39.5 152.5,40C 167.539,41.0849 177.706,48.5849 183,62.5C 185.079,78.8492 178.246,89.3492 162.5,94C 132.203,95.4526 101.87,95.9526 71.5,95.5C 71.5,76.8333 71.5,58.1667 71.5,39.5 Z M 71.5,135.5 C 105.208,135.035 138.874,135.535 172.5,137C 195.262,143.69 201.095,157.523 190,178.5C 183.047,187.395 173.88,192.228 162.5,193C 132.168,193.5 101.835,193.667 71.5,193.5C 71.5,174.167 71.5,154.833 71.5,135.5 Z"/></g>
<g><path style="opacity:1" fill="#5f6368" d="M 743.5,-0.5 C 757.5,-0.5 771.5,-0.5 785.5,-0.5C 785.5,77.5 785.5,155.5 785.5,233.5C 771.5,233.5 757.5,233.5 743.5,233.5C 743.5,155.5 743.5,77.5 743.5,-0.5 Z"/></g>
<g><path style="opacity:1" fill="#5f6368" d="M 689.5,6.5 C 690.5,6.5 691.5,6.5 692.5,6.5C 692.5,23.5 692.5,40.5 692.5,57.5C 703.833,57.5 715.167,57.5 726.5,57.5C 726.5,70.5 726.5,83.5 726.5,96.5C 715.167,96.5 703.833,96.5 692.5,96.5C 692.5,142.167 692.5,187.833 692.5,233.5C 678.5,233.5 664.5,233.5 650.5,233.5C 650.5,187.833 650.5,142.167 650.5,96.5C 644.833,96.5 639.167,96.5 633.5,96.5C 633.5,83.5 633.5,70.5 633.5,57.5C 639.167,57.5 644.833,57.5 650.5,57.5C 650.5,45.1667 650.5,32.8333 650.5,20.5C 663.867,16.6018 676.867,11.9352 689.5,6.5 Z"/></g>
<g><path style="opacity:1" fill="#5f6368" d="M 332.5,52.5 C 364.391,49.4027 391.225,59.4027 413,82.5C 430.53,106.604 437.363,133.604 433.5,163.5C 387.499,163.333 341.499,163.5 295.5,164C 306.098,186.057 323.765,197.557 348.5,198.5C 369.929,197.37 386.763,188.037 399,170.5C 409.589,178.212 420.089,186.045 430.5,194C 417.54,213.828 399.54,226.828 376.5,233C 336.878,243.415 302.045,234.915 272,207.5C 249.885,178.911 244.218,147.244 255,112.5C 269.367,77.6271 295.2,57.6271 332.5,52.5 Z M 337.5,91.5 C 363.958,89.7142 381.958,101.048 391.5,125.5C 359.505,126.667 327.505,126.833 295.5,126C 303.07,106.59 317.07,95.0901 337.5,91.5 Z"/></g>
<g><path style="opacity:1" fill="#5f6368" d="M 542.5,52.5 C 573.255,49.6362 597.422,60.6362 615,85.5C 619.474,93.2557 622.141,101.589 623,110.5C 623.5,151.499 623.667,192.499 623.5,233.5C 609.167,233.5 594.833,233.5 580.5,233.5C 580.976,194.785 580.476,156.119 579,117.5C 572.36,100.17 559.693,91.5032 541,91.5C 520.308,92.5435 505.975,102.544 498,121.5C 496.531,158.793 496.031,196.126 496.5,233.5C 482.5,233.5 468.5,233.5 454.5,233.5C 454.5,174.833 454.5,116.167 454.5,57.5C 467.833,57.5 481.167,57.5 494.5,57.5C 494.334,62.8437 494.501,68.1771 495,73.5C 508.645,61.4249 524.478,54.4249 542.5,52.5 Z"/></g>
<g><path style="opacity:1" fill="#5f6368" d="M 886.5,52.5 C 918.948,49.3658 946.115,59.6991 968,83.5C 980.601,99.9656 987.268,118.632 988,139.5C 988.5,147.493 988.666,155.493 988.5,163.5C 942.5,163.5 896.5,163.5 850.5,163.5C 855.094,177.265 864.094,187.098 877.5,193C 908.497,204.09 933.83,196.59 953.5,170.5C 964.012,177.923 974.345,185.59 984.5,193.5C 970.973,214.501 951.973,228.001 927.5,234C 895.998,241.306 866.665,236.306 839.5,219C 811.345,196.231 799.845,166.731 805,130.5C 814.116,85.5491 841.283,59.5491 886.5,52.5 Z M 891.5,91.5 C 915.458,89.8877 932.958,99.5543 944,120.5C 944.813,122.436 945.313,124.436 945.5,126.5C 913.498,126.667 881.498,126.5 849.5,126C 857.116,106.536 871.116,95.0362 891.5,91.5 Z"/></g>
<g><path style="opacity:1" fill="#5f6368" d="M 1234.5,65.5 C 1234.5,72.5 1234.5,79.5 1234.5,86.5C 1225.43,97.8144 1214.43,99.9811 1201.5,93C 1194.82,86.1542 1192.66,77.9875 1195,68.5C 1200.9,56.4141 1210.4,52.2474 1223.5,56C 1227.98,58.3138 1231.64,61.4804 1234.5,65.5 Z M 1214.5,59.5 C 1229.66,62.9819 1233.99,71.8152 1227.5,86C 1224.67,84.5042 1222.34,82.1708 1220.5,79C 1223.52,77.4714 1224.85,74.9714 1224.5,71.5C 1224.88,68.6753 1223.88,66.5087 1221.5,65C 1216.18,64.5006 1210.84,64.334 1205.5,64.5C 1205.5,72.1667 1205.5,79.8333 1205.5,87.5C 1207.5,87.5 1209.5,87.5 1211.5,87.5C 1211.5,84.8333 1211.5,82.1667 1211.5,79.5C 1214.89,81.0498 1217.56,83.5498 1219.5,87C 1227.16,87.3965 1227.16,88.7298 1219.5,91C 1205.03,92.5314 1198.53,86.0314 1200,71.5C 1202.32,64.3387 1207.15,60.3387 1214.5,59.5 Z M 1211.5,69.5 C 1213.53,69.3379 1215.53,69.5045 1217.5,70C 1218.83,71.3333 1218.83,72.6667 1217.5,74C 1215.53,74.4955 1213.53,74.6621 1211.5,74.5C 1211.5,72.8333 1211.5,71.1667 1211.5,69.5 Z"/></g>
<g><path style="opacity:1" fill="#5f6368" d="M 1006.5,57.5 C 1020.5,57.5 1034.5,57.5 1048.5,57.5C 1048.33,92.1683 1048.5,126.835 1049,161.5C 1053.15,182.768 1066.15,193.768 1088,194.5C 1108.35,193.439 1122.69,183.772 1131,165.5C 1132.47,129.549 1132.97,93.5485 1132.5,57.5C 1146.5,57.5 1160.5,57.5 1174.5,57.5C 1174.67,114.168 1174.5,170.834 1174,227.5C 1166.78,260.723 1146.95,282.556 1114.5,293C 1075.57,301.615 1039.24,295.281 1005.5,274C 1002.19,272.463 1001.69,270.296 1004,267.5C 1010.5,257.833 1017,248.167 1023.5,238.5C 1048.86,256.34 1076.53,261.506 1106.5,254C 1125.01,245.836 1134.17,231.67 1134,211.5C 1110.75,233.015 1083.92,238.849 1053.5,229C 1033.67,222.165 1019.17,209.331 1010,190.5C 1008.84,186.877 1007.84,183.211 1007,179.5C 1006.5,138.835 1006.33,98.168 1006.5,57.5 Z"/></g>
</svg>
