<?xml version="1.0" encoding="UTF-8"?>
<!DOCTYPE svg PUBLIC "-//W3C//DTD SVG 1.1//EN" "http://www.w3.org/Graphics/SVG/1.1/DTD/svg11.dtd">
<svg xmlns="http://www.w3.org/2000/svg" version="1.1" width="3334px" height="1268px" style="shape-rendering:geometricPrecision; text-rendering:geometricPrecision; image-rendering:optimizeQuality; fill-rule:evenodd; clip-rule:evenodd" xmlns:xlink="http://www.w3.org/1999/xlink">
<g><path style="opacity:0.998" fill="#5bfd4f" d="M 2296.5,666.5 C 2231.55,677.987 2182.39,711.987 2149,768.5C 2148.5,737.502 2148.33,706.502 2148.5,675.5C 2112.17,675.5 2075.83,675.5 2039.5,675.5C 2038.5,850.666 2038.17,1026 2038.5,1201.5C 2075.34,1201.83 2112,1201.5 2148.5,1200.5C 2148.33,1098.83 2148.5,997.166 2149,895.5C 2151.02,860.426 2162.69,829.092 2184,801.5C 2219.38,764.651 2262.54,749.985 2313.5,757.5C 2337.25,920.242 2306.75,1071.91 2222,1212.5C 2124.69,1365.31 1987.53,1462.81 1810.5,1505C 1680.4,1530.8 1552.07,1523.8 1425.5,1484C 1303.99,1444.87 1203.49,1375.7 1124,1276.5C 1092.56,1234.64 1067.06,1189.3 1047.5,1140.5C 1081.29,1106.6 1103.96,1066.27 1115.5,1019.5C 1116.4,1018.79 1116.74,1017.79 1116.5,1016.5C 1083.17,1016.5 1049.83,1016.5 1016.5,1016.5C 1013.81,997.61 1012.15,978.61 1011.5,959.5C 1049.33,958.501 1087.33,958.168 1125.5,958.5C 1128.69,908.316 1120.85,859.982 1102,813.5C 1090.56,788.927 1076.4,766.26 1059.5,745.5C 1076.01,720.144 1096.01,697.644 1119.5,678C 1150.8,653.018 1183.8,630.518 1218.5,610.5C 1218.5,807.167 1218.5,1003.83 1218.5,1200.5C 1254.83,1200.5 1291.17,1200.5 1327.5,1200.5C 1327.17,981.764 1327.5,763.097 1328.5,544.5C 1392.72,507.377 1452.38,463.877 1507.5,414C 1543.74,379.113 1576.24,341.28 1605,300.5C 1626.17,268.154 1647.84,236.154 1670,204.5C 1705.01,158.753 1751.51,137.42 1809.5,140.5C 1857.39,140.723 1903.06,150.89 1946.5,171C 1986.59,190.025 2023.25,214.025 2056.5,243C 2127.57,308.06 2184.07,383.894 2226,470.5C 2256.74,533.205 2280.24,598.538 2296.5,666.5 Z"/></g>
<g><path style="opacity:0.986" fill="#5f6368" d="M 2694.5,456.5 C 2718.03,453.828 2739.03,459.661 2757.5,474C 2775.58,492.462 2781.41,514.295 2775,539.5C 2765.24,565.569 2746.41,580.069 2718.5,583C 2696.26,586.089 2675.93,581.422 2657.5,569C 2638.88,552.138 2632.05,531.304 2637,506.5C 2645.19,477.138 2664.36,460.472 2694.5,456.5 Z"/></g>
<g><path style="opacity:0.998" fill="#5f6368" d="M 1328.5,544.5 C 1327.5,763.097 1327.17,981.764 1327.5,1200.5C 1291.17,1200.5 1254.83,1200.5 1218.5,1200.5C 1218.5,1003.83 1218.5,807.167 1218.5,610.5C 1218.5,571.167 1218.5,531.833 1218.5,492.5C 1255.17,492.5 1291.83,492.5 1328.5,492.5C 1328.5,509.833 1328.5,527.167 1328.5,544.5 Z"/></g>
<g><path style="opacity:0.994" fill="#5f6368" d="M 2313.5,757.5 C 2262.54,749.985 2219.38,764.651 2184,801.5C 2162.69,829.092 2151.02,860.426 2149,895.5C 2148.5,997.166 2148.33,1098.83 2148.5,1200.5C 2112.17,1200.5 2075.83,1200.5 2039.5,1200.5C 2039.5,1025.5 2039.5,850.5 2039.5,675.5C 2075.83,675.5 2112.17,675.5 2148.5,675.5C 2148.33,706.502 2148.5,737.502 2149,768.5C 2182.39,711.987 2231.55,677.987 2296.5,666.5C 2340.53,659.427 2383.2,664.26 2424.5,681C 2480.84,709.031 2516.01,753.864 2530,815.5C 2533.45,831 2535.79,846.667 2537,862.5C 2538.45,975.49 2538.95,1088.49 2538.5,1201.5C 2501.5,1201.5 2464.5,1201.5 2427.5,1201.5C 2427.67,1096.17 2427.5,990.833 2427,885.5C 2425.36,850.88 2413.36,820.546 2391,794.5C 2369.43,773.465 2343.59,761.132 2313.5,757.5 Z"/></g>
<g><path style="opacity:0.989" fill="#5f6368" d="M 3055.5,663.5 C 3100.16,660.666 3143.49,666.832 3185.5,682C 3222.85,696.241 3252.35,720.075 3274,753.5C 3287.54,776.668 3294.04,801.668 3293.5,828.5C 3257.83,828.5 3222.17,828.5 3186.5,828.5C 3185.52,800.031 3172.85,778.531 3148.5,764C 3111.74,744.891 3073.41,740.891 3033.5,752C 3017.64,756.88 3004.14,765.38 2993,777.5C 2980.86,793.298 2978.2,810.632 2985,829.5C 2992.28,842.775 3002.78,852.609 3016.5,859C 3025.6,863.551 3034.93,867.551 3044.5,871C 3080.6,882.776 3116.94,893.776 3153.5,904C 3189.56,913.869 3223.23,928.869 3254.5,949C 3290.29,975.909 3307.62,1011.91 3306.5,1057C 3306.43,1095.46 3291.77,1127.13 3262.5,1152C 3227.63,1178.75 3188.3,1195.41 3144.5,1202C 3083.44,1211.94 3023.77,1206.61 2965.5,1186C 2930.67,1173.02 2901.17,1152.52 2877,1124.5C 2855.13,1096.72 2844.3,1065.06 2844.5,1029.5C 2882.17,1029.5 2919.83,1029.5 2957.5,1029.5C 2958.86,1051.72 2967.86,1070.22 2984.5,1085C 3006.2,1102.24 3030.87,1112.91 3058.5,1117C 3092.28,1121.21 3125.28,1117.88 3157.5,1107C 3201.27,1089.02 3212.1,1059.19 3190,1017.5C 3179.49,1006.16 3166.99,997.656 3152.5,992C 3145.58,989.137 3138.58,986.47 3131.5,984C 3092.17,972 3052.83,960 3013.5,948C 2982.5,938.781 2952.84,926.448 2924.5,911C 2884.15,885.391 2866.32,848.557 2871,800.5C 2874.27,766.463 2888.77,738.296 2914.5,716C 2943.23,692.64 2975.89,677.307 3012.5,670C 3026.87,667.114 3041.21,664.948 3055.5,663.5 Z"/></g>
<g><path style="opacity:0.99" fill="#5f6368" d="M 275.5,666.5 C 324.413,664.595 371.08,673.761 415.5,694C 485.301,731.514 526.968,789.514 540.5,868C 501.496,868.833 462.496,868.667 423.5,867.5C 408.85,807.353 370.85,772.853 309.5,764C 253.801,756.334 207.968,773.834 172,816.5C 153.025,843.416 142.359,873.416 140,906.5C 135.14,948.436 140.14,989.103 155,1028.5C 178.722,1078.53 218.222,1106.37 273.5,1112C 318.947,1115.96 358.114,1102.46 391,1071.5C 407.648,1052.87 418.481,1031.2 423.5,1006.5C 462.496,1005.33 501.496,1005.17 540.5,1006C 522.946,1101.54 468.279,1164.88 376.5,1196C 311.981,1213.79 247.981,1212.12 184.5,1191C 115.751,1164.03 68.584,1115.86 43,1046.5C 19.6844,973.829 19.6844,901.162 43,828.5C 78.1777,737.787 144.011,684.954 240.5,670C 252.294,668.554 263.96,667.387 275.5,666.5 Z"/></g>
<g><path style="opacity:0.991" fill="#5f6368" d="M 1059.5,745.5 C 1076.4,766.26 1090.56,788.927 1102,813.5C 1120.85,859.982 1128.69,908.316 1125.5,958.5C 1087.33,958.168 1049.33,958.501 1011.5,959.5C 911.167,959.5 810.833,959.5 710.5,959.5C 711.333,986.832 716.833,1013.17 727,1038.5C 743.701,1072.95 770.201,1096.45 806.5,1109C 855.496,1124.26 902.829,1120.26 948.5,1097C 979.145,1078.57 999.312,1052.07 1009,1017.5C 1011.38,1016.56 1013.88,1016.23 1016.5,1016.5C 1049.68,1016.84 1082.68,1017.84 1115.5,1019.5C 1103.96,1066.27 1081.29,1106.6 1047.5,1140.5C 1008.96,1176.43 963.289,1197.93 910.5,1205C 852.357,1213.55 796.357,1206.22 742.5,1183C 680.317,1152.18 638.484,1103.68 617,1037.5C 598.079,971.929 597.746,906.263 616,840.5C 640.042,765.463 688.542,713.296 761.5,684C 830.969,660.395 900.302,660.729 969.5,685C 1003.98,698.668 1033.98,718.835 1059.5,745.5 Z M 1014.5,880.5 C 1014.67,881.492 1014.34,882.158 1013.5,882.5C 913.5,882.5 813.5,882.5 713.5,882.5C 724.405,815.096 763.072,773.596 829.5,758C 871.531,750.003 911.198,756.337 948.5,777C 986.225,801.244 1008.23,835.744 1014.5,880.5 Z"/></g>
<g><path style="opacity:1" fill="#5f6368" d="M 1661.5,667.5 C 1720,663.401 1775.34,674.568 1827.5,701C 1894.7,740.269 1935.53,798.436 1950,875.5C 1961.77,941.781 1954.44,1005.78 1928,1067.5C 1891.12,1139.55 1832.95,1184.05 1753.5,1201C 1690.47,1214.36 1629.13,1209.02 1569.5,1185C 1493.98,1149.85 1446.48,1091.68 1427,1010.5C 1415.84,955.831 1417.17,901.498 1431,847.5C 1462.23,752.608 1526.73,694.441 1624.5,673C 1636.92,670.743 1649.25,668.909 1661.5,667.5 Z"/></g>
<g><path style="opacity:0.991" fill="#5f6368" d="M 2651.5,673.5 C 2688.17,673.5 2724.83,673.5 2761.5,673.5C 2761.5,849.5 2761.5,1025.5 2761.5,1201.5C 2724.83,1201.5 2688.17,1201.5 2651.5,1201.5C 2651.5,1025.5 2651.5,849.5 2651.5,673.5 Z"/></g>
<g><path style="opacity:1" fill="#5bfd4f" d="M 1670.5,762.5 C 1757.16,758.219 1812.66,797.553 1837,880.5C 1844.29,918.145 1844.29,955.812 1837,993.5C 1818.94,1061.56 1775.11,1100.73 1705.5,1111C 1661.6,1115.86 1622.27,1104.86 1587.5,1078C 1554.85,1048.1 1536.68,1010.94 1533,966.5C 1528.3,927.741 1532.63,890.074 1546,853.5C 1570.25,799.404 1611.75,769.07 1670.5,762.5 Z"/></g>
<g><path style="opacity:1" fill="#2f8229" d="M 1014.5,880.5 C 1015.78,881.386 1015.78,882.386 1014.5,883.5C 1013.89,883.376 1013.56,883.043 1013.5,882.5C 1014.34,882.158 1014.67,881.492 1014.5,880.5 Z"/></g>
<g><path style="opacity:1" fill="#44bc3b" d="M 1016.5,1016.5 C 1049.83,1016.5 1083.17,1016.5 1116.5,1016.5C 1116.74,1017.79 1116.4,1018.79 1115.5,1019.5C 1082.68,1017.84 1049.68,1016.84 1016.5,1016.5 Z"/></g>
<g><path style="opacity:1" fill="#23611e" d="M 2039.5,675.5 C 2039.5,850.5 2039.5,1025.5 2039.5,1200.5C 2075.83,1200.5 2112.17,1200.5 2148.5,1200.5C 2112,1201.5 2075.34,1201.83 2038.5,1201.5C 2038.17,1026 2038.5,850.666 2039.5,675.5 Z"/></g>
</svg>
