<svg xmlns="http://www.w3.org/2000/svg" width="1024" height="362" viewBox="-0.96 -0.96 95.936 33.92"><path d="M0 0h32v32H0zm28.672 28.672V3.328H3.328v25.344zM6.208 8.256v9.664c0 4.416 2.432 7.04 6.528 7.04 4.224 0 6.656-2.624 6.656-7.04V8.256h-3.328v9.664c0 2.496-1.088 3.904-3.264 3.904-2.304 0-3.328-1.472-3.328-3.904V8.256zM23.68 10.24c1.152 0 2.048-.832 2.048-1.984 0-1.216-.832-2.048-2.048-2.048-1.152 0-2.048.832-2.048 2.048 0 1.152.896 1.984 2.048 1.984zm-1.664 1.536v12.992h3.328V11.776zm19.84 7.68c3.584 0 5.952-2.112 5.952-5.632 0-3.392-2.304-5.568-5.952-5.568h-6.272v16.576h3.328V19.52h2.944zm-.384-2.624h-2.624v-5.888h2.624c1.92 0 2.944 1.088 2.944 2.88 0 1.92-1.024 3.008-2.944 3.008zm7.424 1.472c0 3.904 2.496 6.656 6.016 6.656 2.112 0 3.456-.768 4.224-1.984v1.856h3.328V11.776h-3.328v2.048c-.832-1.344-2.176-2.176-4.224-2.176-3.584 0-6.016 2.816-6.016 6.656zm10.24 0c0 2.24-1.408 3.712-3.456 3.712-2.24 0-3.392-1.6-3.392-3.712 0-2.304 1.28-3.776 3.392-3.776s3.456 1.536 3.456 3.776zm11.648 3.648c-1.28 0-1.6-.576-1.6-1.728v-5.632h2.88v-2.816h-2.88V8.192h-3.328v3.584H64.32v2.816h1.536v5.632c0 3.072 1.344 4.544 4.544 4.544h1.728v-2.816zm6.464-8.32V7.488H73.92v17.344h3.328V17.92c0-2.24 1.152-3.584 3.136-3.584 1.92 0 2.944 1.28 2.944 3.264v7.168h3.328V17.28c0-3.392-2.432-5.632-5.504-5.632-1.92 0-3.136.704-3.904 1.984zM86.4 7.424v.512h1.088v3.328h.64V7.936h1.024v-.512H86.4zm6.912 0-1.344 3.072-1.28-3.072h-.768v3.84h.576V8.32l1.28 2.944h.448L93.44 8.32v2.944h.576v-3.84z" style="fill:#fa4616;fill-rule:nonzero;stroke:none;stroke-width:1"/></svg>