<?xml version="1.0" encoding="UTF-8"?>
<!DOCTYPE svg PUBLIC "-//W3C//DTD SVG 1.1//EN" "http://www.w3.org/Graphics/SVG/1.1/DTD/svg11.dtd">
<svg xmlns="http://www.w3.org/2000/svg" version="1.1" width="1800px" height="800px" style="shape-rendering:geometricPrecision; text-rendering:geometricPrecision; image-rendering:optimizeQuality; fill-rule:evenodd; clip-rule:evenodd" xmlns:xlink="http://www.w3.org/1999/xlink">
<g><path style="opacity:1" fill="#fefefe" d="M -0.5,-0.5 C 599.5,-0.5 1199.5,-0.5 1799.5,-0.5C 1799.5,266.167 1799.5,532.833 1799.5,799.5C 1199.5,799.5 599.5,799.5 -0.5,799.5C -0.5,532.833 -0.5,266.167 -0.5,-0.5 Z"/></g>
<g><path style="opacity:1" fill="#dcdcdc" d="M 687.5,386.5 C 686.903,386.735 686.57,387.235 686.5,388C 687.134,391.078 688.134,393.911 689.5,396.5C 689.735,406.365 687.735,415.365 683.5,423.5C 681.436,423.762 680.103,424.929 679.5,427C 679.728,427.399 680.062,427.565 680.5,427.5C 680.167,428.167 679.833,428.833 679.5,429.5C 675.833,431.167 673.167,433.833 671.5,437.5C 661.873,445.136 650.873,448.469 638.5,447.5C 635.911,446.134 633.078,445.134 630,444.5C 629.235,444.57 628.735,444.903 628.5,445.5C 603.177,436.555 591.677,418.555 594,391.5C 600.248,366.75 616.082,353.416 641.5,351.5C 664.935,352.61 680.268,364.276 687.5,386.5 Z"/></g>
<g><path style="opacity:1" fill="#fefefe" d="M 632.5,358.5 C 659.074,356.256 675.907,367.922 683,393.5C 684.128,419.037 672.295,434.87 647.5,441C 623.589,442.133 608.089,431.299 601,408.5C 598.122,383.231 608.622,366.565 632.5,358.5 Z"/></g>
<g><path style="opacity:1" fill="#eeeeee" d="M 784.5,377.5 C 784.828,382.875 784.495,388.208 783.5,393.5C 782.893,393.376 782.56,393.043 782.5,392.5C 783.167,387.5 783.833,382.5 784.5,377.5 Z"/></g>
<g><path style="opacity:1" fill="#dadada" d="M 784.5,377.5 C 787.167,377.5 789.833,377.5 792.5,377.5C 792.5,392.167 792.5,406.833 792.5,421.5C 789.833,421.5 787.167,421.5 784.5,421.5C 784.762,420.022 784.429,418.689 783.5,417.5C 775.595,424.712 768.762,423.712 763,414.5C 761,408.5 761,402.5 763,396.5C 766.655,389.93 772.155,387.763 779.5,390C 780.942,390.377 781.942,391.21 782.5,392.5C 782.56,393.043 782.893,393.376 783.5,393.5C 784.495,388.208 784.828,382.875 784.5,377.5 Z"/></g>
<g><path style="opacity:1" fill="#eeeeee" d="M 822.5,377.5 C 822.828,382.875 822.495,388.208 821.5,393.5C 820.893,393.376 820.56,393.043 820.5,392.5C 821.167,387.5 821.833,382.5 822.5,377.5 Z"/></g>
<g><path style="opacity:1" fill="#dadada" d="M 822.5,377.5 C 825.167,377.5 827.833,377.5 830.5,377.5C 830.5,392.167 830.5,406.833 830.5,421.5C 827.833,421.5 825.167,421.5 822.5,421.5C 822.762,420.022 822.429,418.689 821.5,417.5C 813.595,424.712 806.762,423.712 801,414.5C 799,408.5 799,402.5 801,396.5C 804.655,389.93 810.155,387.763 817.5,390C 818.942,390.377 819.942,391.21 820.5,392.5C 820.56,393.043 820.893,393.376 821.5,393.5C 822.495,388.208 822.828,382.875 822.5,377.5 Z"/></g>
<g><path style="opacity:1" fill="#dadada" d="M 643.5,380.5 C 643.389,381.117 643.056,381.617 642.5,382C 642.823,387.19 643.823,392.023 645.5,396.5C 650.511,396.334 655.511,396.501 660.5,397C 661.98,399.235 661.647,401.068 659.5,402.5C 659.5,401.833 659.167,401.5 658.5,401.5C 653.821,401.334 649.155,401.501 644.5,402C 643.531,406.737 643.197,411.57 643.5,416.5C 643.5,417.167 643.833,417.5 644.5,417.5C 643.068,419.647 641.235,419.98 639,418.5C 638.501,413.511 638.334,408.511 638.5,403.5C 634.023,401.823 629.19,400.823 624,400.5C 623.617,401.056 623.117,401.389 622.5,401.5C 621.201,399.847 621.534,398.347 623.5,397C 628.489,396.501 633.489,396.334 638.5,396.5C 638.334,391.489 638.501,386.489 639,381.5C 640.347,379.534 641.847,379.201 643.5,380.5 Z"/></g>
<g><path style="opacity:1" fill="#dadada" d="M 732.5,379.5 C 736.437,379.207 740.27,379.54 744,380.5C 748.641,394.093 753.475,407.593 758.5,421C 755.446,421.821 752.446,421.655 749.5,420.5C 748.5,417.833 747.5,415.167 746.5,412.5C 741.198,411.337 735.864,411.171 730.5,412C 728.998,415.005 727.998,418.171 727.5,421.5C 724.428,421.817 721.428,421.484 718.5,420.5C 723.573,406.947 728.24,393.281 732.5,379.5 Z"/></g>
<g><path style="opacity:1" fill="#dadada" d="M 848.5,380.5 C 851.304,379.362 854.304,379.195 857.5,380C 860.473,385.458 863.806,390.625 867.5,395.5C 870.752,390.666 873.752,385.666 876.5,380.5C 879.446,379.345 882.446,379.179 885.5,380C 881.126,387.915 876.626,395.748 872,403.5C 871.501,409.491 871.334,415.491 871.5,421.5C 868.5,421.5 865.5,421.5 862.5,421.5C 862.666,415.491 862.499,409.491 862,403.5C 857.637,395.664 853.137,387.997 848.5,380.5 Z"/></g>
<g><path style="opacity:1" fill="#d9d9d9" d="M 1003.5,379.5 C 1010.84,379.334 1018.17,379.5 1025.5,380C 1032.18,382.626 1034.35,387.459 1032,394.5C 1030.83,395.667 1029.67,396.833 1028.5,398C 1035.65,402.399 1037.49,408.565 1034,416.5C 1032.79,418.049 1031.29,419.215 1029.5,420C 1020.9,421.376 1012.24,421.876 1003.5,421.5C 1003.5,407.5 1003.5,393.5 1003.5,379.5 Z"/></g>
<g><path style="opacity:1" fill="#e7e7e7" d="M 643.5,380.5 C 644.222,380.918 644.722,381.584 645,382.5C 645.499,387.155 645.666,391.821 645.5,396.5C 643.823,392.023 642.823,387.19 642.5,382C 643.056,381.617 643.389,381.117 643.5,380.5 Z"/></g>
<g><path style="opacity:1" fill="#fdfdfd" d="M 1011.5,385.5 C 1015.91,385.021 1020.08,385.688 1024,387.5C 1024.67,389.833 1024.67,392.167 1024,394.5C 1020.08,396.312 1015.91,396.979 1011.5,396.5C 1011.5,392.833 1011.5,389.167 1011.5,385.5 Z"/></g>
<g><path style="opacity:1" fill="#e4e4e4" d="M 687.5,386.5 C 689.011,389.544 689.678,392.878 689.5,396.5C 688.134,393.911 687.134,391.078 686.5,388C 686.57,387.235 686.903,386.735 687.5,386.5 Z"/></g>
<g><path style="opacity:1" fill="#fcfcfc" d="M 743.5,404.5 C 739.671,405.069 736.337,404.402 733.5,402.5C 734.493,397.687 735.993,393.02 738,388.5C 740.525,393.574 742.358,398.907 743.5,404.5 Z"/></g>
<g><path style="opacity:1" fill="#dadada" d="M 898.5,389.5 C 916.451,388.7 922.951,397.033 918,414.5C 909.434,424.776 900.434,425.109 891,415.5C 885.785,404.435 888.285,395.768 898.5,389.5 Z"/></g>
<g><path style="opacity:1" fill="#dadada" d="M 1049.5,389.5 C 1053.51,389.334 1057.51,389.501 1061.5,390C 1064.38,391.251 1066.21,393.417 1067,396.5C 1067.5,402.825 1067.67,409.158 1067.5,415.5C 1068.83,415.5 1070.17,415.5 1071.5,415.5C 1072.49,419.57 1070.99,421.57 1067,421.5C 1063.76,421.717 1061.43,420.383 1060,417.5C 1054,424.167 1048,424.167 1042,417.5C 1041.16,413.705 1041.5,410.039 1043,406.5C 1047.8,403.678 1052.96,401.845 1058.5,401C 1059.83,397.474 1058.5,395.641 1054.5,395.5C 1051,396.578 1047.67,397.745 1044.5,399C 1042.96,397.401 1042.46,395.567 1043,393.5C 1045.31,392.267 1047.48,390.933 1049.5,389.5 Z"/></g>
<g><path style="opacity:1" fill="#e6e6e6" d="M 1076.5,390.5 C 1078.95,389.527 1081.61,389.194 1084.5,389.5C 1084.5,391.167 1084.5,392.833 1084.5,394.5C 1083.57,393.432 1083.23,392.099 1083.5,390.5C 1081.17,390.5 1078.83,390.5 1076.5,390.5 Z"/></g>
<g><path style="opacity:1" fill="#dadada" d="M 1076.5,390.5 C 1078.83,390.5 1081.17,390.5 1083.5,390.5C 1083.23,392.099 1083.57,393.432 1084.5,394.5C 1088.3,389.752 1093.3,388.252 1099.5,390C 1101.33,391.167 1102.83,392.667 1104,394.5C 1104.5,403.494 1104.67,412.494 1104.5,421.5C 1101.83,421.5 1099.17,421.5 1096.5,421.5C 1096.67,413.493 1096.5,405.493 1096,397.5C 1093.26,396.39 1090.43,396.223 1087.5,397C 1086.3,397.903 1085.47,399.069 1085,400.5C 1084.5,407.492 1084.33,414.492 1084.5,421.5C 1081.83,421.5 1079.17,421.5 1076.5,421.5C 1076.5,411.167 1076.5,400.833 1076.5,390.5 Z"/></g>
<g><path style="opacity:1" fill="#e6e6e6" d="M 1113.5,390.5 C 1115.95,389.527 1118.61,389.194 1121.5,389.5C 1121.5,391.167 1121.5,392.833 1121.5,394.5C 1120.57,393.432 1120.23,392.099 1120.5,390.5C 1118.17,390.5 1115.83,390.5 1113.5,390.5 Z"/></g>
<g><path style="opacity:1" fill="#dadada" d="M 1113.5,390.5 C 1115.83,390.5 1118.17,390.5 1120.5,390.5C 1120.23,392.099 1120.57,393.432 1121.5,394.5C 1125.3,389.752 1130.3,388.252 1136.5,390C 1138.33,391.167 1139.83,392.667 1141,394.5C 1141.5,403.494 1141.67,412.494 1141.5,421.5C 1138.83,421.5 1136.17,421.5 1133.5,421.5C 1133.67,413.493 1133.5,405.493 1133,397.5C 1130.26,396.39 1127.43,396.223 1124.5,397C 1123.3,397.903 1122.47,399.069 1122,400.5C 1121.5,407.492 1121.33,414.492 1121.5,421.5C 1118.83,421.5 1116.17,421.5 1113.5,421.5C 1113.5,411.167 1113.5,400.833 1113.5,390.5 Z"/></g>
<g><path style="opacity:1" fill="#dadada" d="M 1158.5,389.5 C 1172.74,387.412 1179.08,393.412 1177.5,407.5C 1170.83,407.5 1164.17,407.5 1157.5,407.5C 1157.66,414.088 1160.99,416.588 1167.5,415C 1169.3,414.028 1170.97,412.861 1172.5,411.5C 1178.68,413.677 1179.01,416.51 1173.5,420C 1162.03,425.07 1153.87,421.904 1149,410.5C 1147.33,401.177 1150.5,394.177 1158.5,389.5 Z"/></g>
<g><path style="opacity:1" fill="#e4e4e4" d="M 934.5,390.5 C 932.167,390.5 929.833,390.5 927.5,390.5C 927.5,398.167 927.5,405.833 927.5,413.5C 926.508,405.684 926.174,397.684 926.5,389.5C 929.385,389.194 932.052,389.527 934.5,390.5 Z"/></g>
<g><path style="opacity:1" fill="#d9d9d9" d="M 934.5,390.5 C 934.334,397.841 934.5,405.174 935,412.5C 937.636,415.947 940.803,416.447 944.5,414C 945.861,412.416 946.528,410.582 946.5,408.5C 947.49,402.69 947.823,396.69 947.5,390.5C 949.833,390.5 952.167,390.5 954.5,390.5C 954.5,400.833 954.5,411.167 954.5,421.5C 952.167,421.5 949.833,421.5 947.5,421.5C 947.66,419.801 947.494,418.134 947,416.5C 941.011,424.112 934.678,424.445 928,417.5C 927.51,416.207 927.343,414.873 927.5,413.5C 927.5,405.833 927.5,398.167 927.5,390.5C 929.833,390.5 932.167,390.5 934.5,390.5 Z"/></g>
<g><path style="opacity:1" fill="#e4e4e4" d="M 954.5,390.5 C 952.167,390.5 949.833,390.5 947.5,390.5C 947.823,396.69 947.49,402.69 946.5,408.5C 946.5,402.167 946.5,395.833 946.5,389.5C 949.385,389.194 952.052,389.527 954.5,390.5 Z"/></g>
<g><path style="opacity:1" fill="#e3e3e3" d="M 971.5,390.5 C 969.167,390.5 966.833,390.5 964.5,390.5C 964.5,400.833 964.5,411.167 964.5,421.5C 963.506,411.013 963.172,400.346 963.5,389.5C 966.385,389.194 969.052,389.527 971.5,390.5 Z"/></g>
<g><path style="opacity:1" fill="#d9d9d9" d="M 964.5,421.5 C 964.5,411.167 964.5,400.833 964.5,390.5C 966.833,390.5 969.167,390.5 971.5,390.5C 971.343,391.873 971.51,393.207 972,394.5C 974.226,390.139 977.726,388.639 982.5,390C 983.45,392.432 983.45,394.932 982.5,397.5C 979.813,397.336 977.146,397.503 974.5,398C 973.789,399.255 972.956,400.421 972,401.5C 971.5,408.158 971.334,414.825 971.5,421.5C 969.167,421.5 966.833,421.5 964.5,421.5 Z"/></g>
<g><path style="opacity:1" fill="#ececec" d="M 1194.5,392.5 C 1194.22,393.289 1193.72,393.956 1193,394.5C 1192.51,393.207 1192.34,391.873 1192.5,390.5C 1190.17,390.5 1187.83,390.5 1185.5,390.5C 1185.5,400.833 1185.5,411.167 1185.5,421.5C 1184.51,411.013 1184.17,400.346 1184.5,389.5C 1187.5,389.5 1190.5,389.5 1193.5,389.5C 1193.26,390.791 1193.6,391.791 1194.5,392.5 Z"/></g>
<g><path style="opacity:1" fill="#dadada" d="M 1185.5,421.5 C 1185.5,411.167 1185.5,400.833 1185.5,390.5C 1187.83,390.5 1190.17,390.5 1192.5,390.5C 1192.34,391.873 1192.51,393.207 1193,394.5C 1193.72,393.956 1194.22,393.289 1194.5,392.5C 1197.23,389.857 1200.57,388.857 1204.5,389.5C 1205.81,396.018 1203.14,398.852 1196.5,398C 1195.67,398.833 1194.83,399.667 1194,400.5C 1193.5,407.492 1193.33,414.492 1193.5,421.5C 1190.83,421.5 1188.17,421.5 1185.5,421.5 Z"/></g>
<g><path style="opacity:1" fill="#fcfcfc" d="M 1161.5,395.5 C 1167.03,394.75 1170.03,397.083 1170.5,402.5C 1166.17,402.5 1161.83,402.5 1157.5,402.5C 1157.57,399.348 1158.9,397.014 1161.5,395.5 Z"/></g>
<g><path style="opacity:1" fill="#fdfdfd" d="M 773.5,396.5 C 782.099,395.936 785.599,399.936 784,408.5C 783.11,414.027 779.943,416.193 774.5,415C 769.777,411.746 768.277,407.246 770,401.5C 770.997,399.677 772.164,398.01 773.5,396.5 Z"/></g>
<g><path style="opacity:1" fill="#fdfdfd" d="M 811.5,396.5 C 820.099,395.936 823.599,399.936 822,408.5C 821.11,414.027 817.943,416.193 812.5,415C 807.777,411.746 806.277,407.246 808,401.5C 808.997,399.677 810.164,398.01 811.5,396.5 Z"/></g>
<g><path style="opacity:1" fill="#fdfdfd" d="M 900.5,396.5 C 903.187,396.336 905.854,396.503 908.5,397C 909.701,397.903 910.535,399.069 911,400.5C 912.472,406.076 911.305,410.909 907.5,415C 903.328,416.291 900.161,415.124 898,411.5C 897.333,407.5 897.333,403.5 898,399.5C 899.045,398.627 899.878,397.627 900.5,396.5 Z"/></g>
<g><path style="opacity:1" fill="#e7e7e7" d="M 638.5,403.5 C 633.821,403.666 629.155,403.499 624.5,403C 623.584,402.722 622.918,402.222 622.5,401.5C 623.117,401.389 623.617,401.056 624,400.5C 629.19,400.823 634.023,401.823 638.5,403.5 Z"/></g>
<g><path style="opacity:1" fill="#e3e3e3" d="M 658.5,401.5 C 654.167,402.167 649.833,402.833 645.5,403.5C 644.833,407.833 644.167,412.167 643.5,416.5C 643.197,411.57 643.531,406.737 644.5,402C 649.155,401.501 653.821,401.334 658.5,401.5 Z"/></g>
<g><path style="opacity:1" fill="#f0f0f0" d="M 658.5,401.5 C 659.167,401.5 659.5,401.833 659.5,402.5C 655.03,403.486 650.363,403.819 645.5,403.5C 649.833,402.833 654.167,402.167 658.5,401.5 Z"/></g>
<g><path style="opacity:1" fill="#fefefe" d="M 1011.5,402.5 C 1015.51,402.334 1019.51,402.501 1023.5,403C 1028.03,405.824 1028.69,409.49 1025.5,414C 1020.85,414.499 1016.18,414.666 1011.5,414.5C 1011.5,410.5 1011.5,406.5 1011.5,402.5 Z"/></g>
<g><path style="opacity:1" fill="#f0f0f0" d="M 645.5,403.5 C 645.819,408.363 645.486,413.03 644.5,417.5C 643.833,417.5 643.5,417.167 643.5,416.5C 644.167,412.167 644.833,407.833 645.5,403.5 Z"/></g>
<g><path style="opacity:1" fill="#e6e6e6" d="M 733.5,402.5 C 736.337,404.402 739.671,405.069 743.5,404.5C 740.038,405.482 736.371,405.815 732.5,405.5C 732.263,404.209 732.596,403.209 733.5,402.5 Z"/></g>
<g><path style="opacity:1" fill="#fdfdfd" d="M 1057.5,406.5 C 1059.89,408.762 1060.06,411.428 1058,414.5C 1051.95,418.107 1049.28,416.441 1050,409.5C 1052.38,408.033 1054.88,407.033 1057.5,406.5 Z"/></g>
<g><path style="opacity:1" fill="#e8e8e8" d="M 683.5,423.5 C 682.974,425.23 681.974,426.564 680.5,427.5C 680.062,427.565 679.728,427.399 679.5,427C 680.103,424.929 681.436,423.762 683.5,423.5 Z"/></g>
<g><path style="opacity:1" fill="#e7e7e7" d="M 679.5,429.5 C 677.167,432.5 674.5,435.167 671.5,437.5C 673.167,433.833 675.833,431.167 679.5,429.5 Z"/></g>
<g><path style="opacity:1" fill="#e4e4e4" d="M 638.5,447.5 C 634.878,447.678 631.544,447.011 628.5,445.5C 628.735,444.903 629.235,444.57 630,444.5C 633.078,445.134 635.911,446.134 638.5,447.5 Z"/></g>
</svg>
