<?xml version="1.0" encoding="UTF-8"?>
<!DOCTYPE svg PUBLIC "-//W3C//DTD SVG 1.1//EN" "http://www.w3.org/Graphics/SVG/1.1/DTD/svg11.dtd">
<svg xmlns="http://www.w3.org/2000/svg" version="1.1" width="500px" height="500px" style="shape-rendering:geometricPrecision; text-rendering:geometricPrecision; image-rendering:optimizeQuality; fill-rule:evenodd; clip-rule:evenodd" xmlns:xlink="http://www.w3.org/1999/xlink">
<g><path style="opacity:1" fill="#fefefe" d="M -0.5,-0.5 C 166.167,-0.5 332.833,-0.5 499.5,-0.5C 499.5,166.167 499.5,332.833 499.5,499.5C 332.833,499.5 166.167,499.5 -0.5,499.5C -0.5,332.833 -0.5,166.167 -0.5,-0.5 Z"/></g>
<g><path style="opacity:1" fill="#dadada" d="M 241.5,87.5 C 246.833,87.5 252.167,87.5 257.5,87.5C 259.713,89.3117 262.047,89.6451 264.5,88.5C 305.875,96.3733 333.042,120.373 346,160.5C 354.872,199.859 345.038,233.692 316.5,262C 286.828,286.283 253.495,292.949 216.5,282C 170.194,262.253 148.028,227.087 150,176.5C 156.158,136.345 177.991,108.511 215.5,93C 221.674,90.7742 228.007,89.2742 234.5,88.5C 236.953,89.6451 239.287,89.3117 241.5,87.5 Z"/></g>
<g><path style="opacity:1" fill="#e7e7e7" d="M 241.5,87.5 C 239.287,89.3117 236.953,89.6451 234.5,88.5C 236.764,87.7814 239.097,87.448 241.5,87.5 Z"/></g>
<g><path style="opacity:1" fill="#e8e8e8" d="M 257.5,87.5 C 259.903,87.448 262.236,87.7814 264.5,88.5C 262.047,89.6451 259.713,89.3117 257.5,87.5 Z"/></g>
<g><path style="opacity:1" fill="#fefefe" d="M 264.5,272.5 C 250.239,274.491 236.239,273.491 222.5,269.5C 184.856,254.821 164.856,227.154 162.5,186.5C 166.099,141.468 189.766,113.301 233.5,102C 278.123,96.8906 310.29,114.391 330,154.5C 341.739,187.869 336.406,218.202 314,245.5C 300.485,259.843 283.985,268.843 264.5,272.5 Z"/></g>
<g><path style="opacity:1" fill="#dadada" d="M 256.5,180.5 C 266.451,182.314 276.785,183.147 287.5,183C 288.244,184.039 289.244,184.539 290.5,184.5C 291.296,188.639 289.963,191.805 286.5,194C 276.506,194.5 266.506,194.666 256.5,194.5C 256.666,204.506 256.5,214.506 256,224.5C 251.667,229.833 247.333,229.833 243,224.5C 242.5,214.506 242.334,204.506 242.5,194.5C 232.494,194.666 222.494,194.5 212.5,194C 209.037,191.805 207.704,188.639 208.5,184.5C 209.756,184.539 210.756,184.039 211.5,183C 222.215,183.147 232.549,182.314 242.5,180.5C 242.334,170.494 242.5,160.494 243,150.5C 247.333,143.833 251.667,143.833 256,150.5C 256.5,160.494 256.666,170.494 256.5,180.5 Z"/></g>
<g><path style="opacity:1" fill="#dedede" d="M 242.5,180.5 C 232.549,182.314 222.215,183.147 211.5,183C 210.756,184.039 209.756,184.539 208.5,184.5C 209.343,182.827 210.676,181.66 212.5,181C 222.494,180.5 232.494,180.334 242.5,180.5 Z"/></g>
<g><path style="opacity:1" fill="#dedede" d="M 256.5,180.5 C 266.506,180.334 276.506,180.5 286.5,181C 288.324,181.66 289.657,182.827 290.5,184.5C 289.244,184.539 288.244,184.039 287.5,183C 276.785,183.147 266.451,182.314 256.5,180.5 Z"/></g>
<g><path style="opacity:1" fill="#e2e2e2" d="M 222.5,269.5 C 236.239,273.491 250.239,274.491 264.5,272.5C 263.319,274.067 261.653,274.901 259.5,275C 247.646,276.157 235.979,275.157 224.5,272C 223.244,271.583 222.577,270.75 222.5,269.5 Z"/></g>
<g><path style="opacity:1" fill="#e3e3e3" d="M 119.5,326.5 C 119.827,331.544 119.494,336.544 118.5,341.5C 117.893,341.376 117.56,341.043 117.5,340.5C 118.167,335.833 118.833,331.167 119.5,326.5 Z"/></g>
<g><path style="opacity:1" fill="#dadada" d="M 119.5,326.5 C 121.833,326.5 124.167,326.5 126.5,326.5C 126.5,339.833 126.5,353.167 126.5,366.5C 123.833,366.5 121.167,366.5 118.5,366.5C 118.649,365.448 118.483,364.448 118,363.5C 109.716,369.631 103.382,367.965 99,358.5C 98.3333,354.167 98.3333,349.833 99,345.5C 101.834,338.334 107.001,335.834 114.5,338C 115.942,338.377 116.942,339.21 117.5,340.5C 117.56,341.043 117.893,341.376 118.5,341.5C 119.494,336.544 119.827,331.544 119.5,326.5 Z"/></g>
<g><path style="opacity:1" fill="#ededed" d="M 153.5,326.5 C 153.827,331.214 153.493,335.88 152.5,340.5C 151.893,340.376 151.56,340.043 151.5,339.5C 152.167,335.167 152.833,330.833 153.5,326.5 Z"/></g>
<g><path style="opacity:1" fill="#dadada" d="M 153.5,326.5 C 155.833,326.5 158.167,326.5 160.5,326.5C 160.5,339.833 160.5,353.167 160.5,366.5C 157.833,366.5 155.167,366.5 152.5,366.5C 152.557,362.867 151.557,362.7 149.5,366C 138.131,368.3 132.465,363.634 132.5,352C 133.311,339.268 139.644,335.101 151.5,339.5C 151.56,340.043 151.893,340.376 152.5,340.5C 153.493,335.88 153.827,331.214 153.5,326.5 Z"/></g>
<g><path style="opacity:1" fill="#dadada" d="M 71.5,328.5 C 75.1667,328.5 78.8333,328.5 82.5,328.5C 86.704,341.112 90.704,353.778 94.5,366.5C 91.8333,366.5 89.1667,366.5 86.5,366.5C 87.2469,359.311 84.0802,356.311 77,357.5C 69.9198,356.311 66.7531,359.311 67.5,366.5C 64.8333,366.5 62.1667,366.5 59.5,366.5C 63.302,353.761 67.302,341.095 71.5,328.5 Z"/></g>
<g><path style="opacity:1" fill="#d9d9d9" d="M 177.5,329.5 C 179.966,328.366 182.633,328.199 185.5,329C 188.459,333.751 191.293,338.584 194,343.5C 197.085,339 199.918,334.333 202.5,329.5C 205.167,328.167 207.833,328.167 210.5,329.5C 206.133,336.705 201.967,344.038 198,351.5C 197.501,356.489 197.334,361.489 197.5,366.5C 195.167,366.5 192.833,366.5 190.5,366.5C 190.666,361.156 190.499,355.823 190,350.5C 185.807,343.437 181.641,336.437 177.5,329.5 Z"/></g>
<g><path style="opacity:1" fill="#dadada" d="M 317.5,328.5 C 320.167,328.5 322.833,328.5 325.5,328.5C 325.5,339.167 325.5,349.833 325.5,360.5C 331.167,360.5 336.833,360.5 342.5,360.5C 342.5,362.5 342.5,364.5 342.5,366.5C 334.167,366.5 325.833,366.5 317.5,366.5C 317.5,353.833 317.5,341.167 317.5,328.5 Z"/></g>
<g><path style="opacity:1" fill="#dadada" d="M 399.5,333.5 C 401.696,333.565 403.696,334.232 405.5,335.5C 404.559,337.772 403.226,339.772 401.5,341.5C 404.523,346.503 403.857,351.003 399.5,355C 395.916,356.073 392.25,356.74 388.5,357C 387.167,358 387.167,359 388.5,360C 393.65,360.088 398.65,360.921 403.5,362.5C 408.369,369.238 407.036,374.405 399.5,378C 394.5,378.667 389.5,378.667 384.5,378C 379.383,376.268 377.55,372.768 379,367.5C 380.586,366.624 382.086,365.624 383.5,364.5C 380.4,360.498 381.067,357.331 385.5,355C 381.673,351.692 380.506,347.526 382,342.5C 382.93,340.448 384.43,338.948 386.5,338C 390.225,337.24 393.892,337.407 397.5,338.5C 398.562,336.978 399.229,335.312 399.5,333.5 Z"/></g>
<g><path style="opacity:1" fill="#fbfbfb" d="M 76.5,336.5 C 79.1395,341.085 80.8062,346.085 81.5,351.5C 78.5,351.5 75.5,351.5 72.5,351.5C 73.0207,346.273 74.3541,341.273 76.5,336.5 Z"/></g>
<g><path style="opacity:1" fill="#dadada" d="M 222.5,337.5 C 240.426,337.317 245.926,345.65 239,362.5C 237.421,364.041 235.587,365.208 233.5,366C 218.906,368.406 212.406,362.24 214,347.5C 215.289,342.721 218.123,339.388 222.5,337.5 Z"/></g>
<g><path style="opacity:1" fill="#dadada" d="M 282.5,337.5 C 284.833,337.5 287.167,337.5 289.5,337.5C 289.343,338.873 289.51,340.207 290,341.5C 292.15,338.037 295.316,336.704 299.5,337.5C 299.5,339.833 299.5,342.167 299.5,344.5C 295.713,343.814 292.546,344.814 290,347.5C 289.5,353.825 289.334,360.158 289.5,366.5C 287.167,366.5 284.833,366.5 282.5,366.5C 282.5,356.833 282.5,347.167 282.5,337.5 Z"/></g>
<g><path style="opacity:1" fill="#dadada" d="M 354.5,337.5 C 372.305,336.779 378.139,344.779 372,361.5C 370.457,363.378 368.624,364.878 366.5,366C 351.366,368.199 344.866,361.699 347,346.5C 348.642,342.7 351.142,339.7 354.5,337.5 Z"/></g>
<g><path style="opacity:1" fill="#dadada" d="M 417.5,337.5 C 433.151,335.985 439.651,342.985 437,358.5C 432.699,366.114 426.199,368.614 417.5,366C 410.156,361.464 407.656,354.964 410,346.5C 411.642,342.7 414.142,339.7 417.5,337.5 Z"/></g>
<g><path style="opacity:1" fill="#dadada" d="M 248.5,337.5 C 250.833,337.5 253.167,337.5 255.5,337.5C 255.334,344.508 255.5,351.508 256,358.5C 260.118,361.592 263.451,360.925 266,356.5C 266.5,350.175 266.666,343.842 266.5,337.5C 268.833,337.5 271.167,337.5 273.5,337.5C 273.5,347.167 273.5,356.833 273.5,366.5C 271.167,366.5 268.833,366.5 266.5,366.5C 266.649,365.448 266.483,364.448 266,363.5C 263.694,365.888 260.861,366.888 257.5,366.5C 254.363,366.949 251.863,365.949 250,363.5C 248.559,354.942 248.059,346.276 248.5,337.5 Z"/></g>
<g><path style="opacity:1" fill="#fefefe" d="M 389.5,342.5 C 396.486,342.331 398.153,345.164 394.5,351C 392.559,351.743 390.726,351.576 389,350.5C 388.278,347.739 388.445,345.073 389.5,342.5 Z"/></g>
<g><path style="opacity:1" fill="#fdfdfd" d="M 109.5,343.5 C 113.355,342.845 116.188,344.179 118,347.5C 119.193,352.152 118.36,356.319 115.5,360C 111.219,361.458 108.053,360.292 106,356.5C 104.539,351.284 105.705,346.95 109.5,343.5 Z"/></g>
<g><path style="opacity:1" fill="#fefefe" d="M 143.5,343.5 C 146.97,342.875 149.804,343.875 152,346.5C 152.667,350.167 152.667,353.833 152,357.5C 149.833,360.287 146.999,361.12 143.5,360C 142.333,359.5 141.5,358.667 141,357.5C 139.718,352.295 140.551,347.628 143.5,343.5 Z"/></g>
<g><path style="opacity:1" fill="#fefefe" d="M 224.5,343.5 C 233.105,343.008 236.272,347.008 234,355.5C 232.551,360.218 229.385,361.718 224.5,360C 220.537,354.501 220.537,349.001 224.5,343.5 Z"/></g>
<g><path style="opacity:1" fill="#fdfdfd" d="M 357.5,343.5 C 360.97,342.875 363.804,343.875 366,346.5C 366.667,350.167 366.667,353.833 366,357.5C 365.5,358.667 364.667,359.5 363.5,360C 358.661,361.716 355.494,360.216 354,355.5C 352.746,350.695 353.913,346.695 357.5,343.5 Z"/></g>
<g><path style="opacity:1" fill="#fdfdfd" d="M 420.5,343.5 C 428.641,343.42 431.808,347.42 430,355.5C 428.551,360.218 425.385,361.718 420.5,360C 419.333,359.5 418.5,358.667 418,357.5C 416.718,352.295 417.551,347.628 420.5,343.5 Z"/></g>
<g><path style="opacity:1" fill="#fafafa" d="M 386.5,366.5 C 390.182,366.335 393.848,366.501 397.5,367C 400.326,369.522 399.993,371.522 396.5,373C 393.5,373.667 390.5,373.667 387.5,373C 385.316,371.102 384.983,368.936 386.5,366.5 Z"/></g>
</svg>
