<?xml version="1.0" encoding="UTF-8"?>
<!DOCTYPE svg PUBLIC "-//W3C//DTD SVG 1.1//EN" "http://www.w3.org/Graphics/SVG/1.1/DTD/svg11.dtd">
<svg xmlns="http://www.w3.org/2000/svg" version="1.1" width="2560px" height="604px" style="shape-rendering:geometricPrecision; text-rendering:geometricPrecision; image-rendering:optimizeQuality; fill-rule:evenodd; clip-rule:evenodd" xmlns:xlink="http://www.w3.org/1999/xlink">
<g><path style="opacity:1" fill="#fefefe" d="M -0.5,-0.5 C 852.833,-0.5 1706.17,-0.5 2559.5,-0.5C 2559.5,200.833 2559.5,402.167 2559.5,603.5C 1706.17,603.5 852.833,603.5 -0.5,603.5C -0.5,402.167 -0.5,200.833 -0.5,-0.5 Z"/></g>
<g><path style="opacity:1" fill="#dbdbdb" d="M 951.5,253.5 C 978.449,251.713 996.615,263.38 1006,288.5C 1011.28,317.791 1000.11,337.624 972.5,348C 945.92,353.293 926.753,343.793 915,319.5C 906.584,285.992 918.751,263.992 951.5,253.5 Z"/></g>
<g><path style="opacity:1" fill="#fefefe" d="M 950.5,260.5 C 975.134,258.058 991.634,268.391 1000,291.5C 1003.36,318.618 991.858,335.784 965.5,343C 941.589,344.133 926.089,333.299 919,310.5C 916.107,285.268 926.607,268.602 950.5,260.5 Z"/></g>
<g><path style="opacity:1" fill="#eeeeee" d="M 1102.5,279.5 C 1102.83,284.875 1102.49,290.208 1101.5,295.5C 1100.89,295.376 1100.56,295.043 1100.5,294.5C 1101.17,289.5 1101.83,284.5 1102.5,279.5 Z"/></g>
<g><path style="opacity:1" fill="#dadada" d="M 1102.5,279.5 C 1105.17,279.5 1107.83,279.5 1110.5,279.5C 1110.5,294.167 1110.5,308.833 1110.5,323.5C 1107.83,323.5 1105.17,323.5 1102.5,323.5C 1102.76,322.022 1102.43,320.689 1101.5,319.5C 1093.6,326.712 1086.76,325.712 1081,316.5C 1079,310.5 1079,304.5 1081,298.5C 1084.66,291.93 1090.16,289.763 1097.5,292C 1098.94,292.377 1099.94,293.21 1100.5,294.5C 1100.56,295.043 1100.89,295.376 1101.5,295.5C 1102.49,290.208 1102.83,284.875 1102.5,279.5 Z"/></g>
<g><path style="opacity:1" fill="#e6e6e6" d="M 1140.5,279.5 C 1140.83,284.875 1140.49,290.208 1139.5,295.5C 1138.89,295.376 1138.56,295.043 1138.5,294.5C 1139.17,289.5 1139.83,284.5 1140.5,279.5 Z"/></g>
<g><path style="opacity:1" fill="#d9d9d9" d="M 1140.5,279.5 C 1142.83,279.5 1145.17,279.5 1147.5,279.5C 1147.5,294.167 1147.5,308.833 1147.5,323.5C 1144.83,323.5 1142.17,323.5 1139.5,323.5C 1139.63,318.728 1138.3,318.562 1135.5,323C 1123.14,325.615 1117.14,320.449 1117.5,307.5C 1117.36,295.804 1123.02,290.637 1134.5,292C 1136.07,292.608 1137.4,293.442 1138.5,294.5C 1138.56,295.043 1138.89,295.376 1139.5,295.5C 1140.49,290.208 1140.83,284.875 1140.5,279.5 Z"/></g>
<g><path style="opacity:1" fill="#dbdbdb" d="M 979.5,302.5 C 973.894,303.407 968.227,303.74 962.5,303.5C 962.5,308.5 962.5,313.5 962.5,318.5C 961.928,321.244 960.262,322.077 957.5,321C 956.748,320.329 956.414,319.496 956.5,318.5C 956.5,313.833 956.5,309.167 956.5,304.5C 951.833,304.5 947.167,304.5 942.5,304.5C 938.971,303.391 938.638,301.558 941.5,299C 946.489,298.501 951.489,298.334 956.5,298.5C 956.334,293.489 956.501,288.489 957,283.5C 958.396,281.473 960.062,281.14 962,282.5C 962.499,287.823 962.666,293.156 962.5,298.5C 967.875,298.172 973.208,298.505 978.5,299.5C 979.127,300.417 979.461,301.417 979.5,302.5 Z"/></g>
<g><path style="opacity:1" fill="#dadada" d="M 1050.5,281.5 C 1054.44,281.207 1058.27,281.54 1062,282.5C 1066.64,296.093 1071.47,309.593 1076.5,323C 1073.45,323.821 1070.45,323.655 1067.5,322.5C 1066.5,319.833 1065.5,317.167 1064.5,314.5C 1059.2,313.337 1053.86,313.171 1048.5,314C 1047,317.005 1046,320.171 1045.5,323.5C 1042.43,323.817 1039.43,323.484 1036.5,322.5C 1041.57,308.947 1046.24,295.281 1050.5,281.5 Z"/></g>
<g><path style="opacity:1" fill="#dadada" d="M 1166.5,282.5 C 1169.3,281.362 1172.3,281.195 1175.5,282C 1178.47,287.458 1181.81,292.625 1185.5,297.5C 1188.75,292.666 1191.75,287.666 1194.5,282.5C 1197.45,281.345 1200.45,281.179 1203.5,282C 1199.13,289.915 1194.63,297.748 1190,305.5C 1189.5,311.491 1189.33,317.491 1189.5,323.5C 1186.5,323.5 1183.5,323.5 1180.5,323.5C 1180.67,317.491 1180.5,311.491 1180,305.5C 1175.64,297.664 1171.14,289.997 1166.5,282.5 Z"/></g>
<g><path style="opacity:1" fill="#d9d9d9" d="M 1321.5,281.5 C 1328.84,281.334 1336.17,281.5 1343.5,282C 1350.18,284.626 1352.35,289.459 1350,296.5C 1348.83,297.667 1347.67,298.833 1346.5,300C 1353.65,304.399 1355.49,310.565 1352,318.5C 1350.79,320.049 1349.29,321.215 1347.5,322C 1338.9,323.376 1330.24,323.876 1321.5,323.5C 1321.5,309.5 1321.5,295.5 1321.5,281.5 Z"/></g>
<g><path style="opacity:1" fill="#fdfdfd" d="M 1329.5,287.5 C 1333.91,287.021 1338.08,287.688 1342,289.5C 1342.67,291.833 1342.67,294.167 1342,296.5C 1338.08,298.312 1333.91,298.979 1329.5,298.5C 1329.5,294.833 1329.5,291.167 1329.5,287.5 Z"/></g>
<g><path style="opacity:1" fill="#fcfcfc" d="M 1061.5,306.5 C 1057.67,307.069 1054.34,306.402 1051.5,304.5C 1052.49,299.687 1053.99,295.02 1056,290.5C 1058.52,295.574 1060.36,300.907 1061.5,306.5 Z"/></g>
<g><path style="opacity:1" fill="#dadada" d="M 1216.5,291.5 C 1234.33,290.839 1240.83,299.172 1236,316.5C 1230.06,324.478 1222.56,326.312 1213.5,322C 1206.45,315.906 1204.61,308.406 1208,299.5C 1210.07,295.923 1212.91,293.256 1216.5,291.5 Z"/></g>
<g><path style="opacity:1" fill="#dadada" d="M 1367.5,291.5 C 1371.51,291.334 1375.51,291.501 1379.5,292C 1382.38,293.251 1384.21,295.417 1385,298.5C 1385.5,304.825 1385.67,311.158 1385.5,317.5C 1386.83,317.5 1388.17,317.5 1389.5,317.5C 1390.49,321.57 1388.99,323.57 1385,323.5C 1381.76,323.717 1379.43,322.383 1378,319.5C 1372,326.167 1366,326.167 1360,319.5C 1359.16,315.705 1359.5,312.039 1361,308.5C 1365.8,305.678 1370.96,303.845 1376.5,303C 1377.83,299.474 1376.5,297.641 1372.5,297.5C 1369,298.578 1365.67,299.745 1362.5,301C 1360.96,299.401 1360.46,297.567 1361,295.5C 1363.31,294.267 1365.48,292.933 1367.5,291.5 Z"/></g>
<g><path style="opacity:1" fill="#e6e6e6" d="M 1394.5,292.5 C 1396.95,291.527 1399.61,291.194 1402.5,291.5C 1402.5,293.167 1402.5,294.833 1402.5,296.5C 1401.57,295.432 1401.23,294.099 1401.5,292.5C 1399.17,292.5 1396.83,292.5 1394.5,292.5 Z"/></g>
<g><path style="opacity:1" fill="#dadada" d="M 1394.5,292.5 C 1396.83,292.5 1399.17,292.5 1401.5,292.5C 1401.23,294.099 1401.57,295.432 1402.5,296.5C 1406.3,291.752 1411.3,290.252 1417.5,292C 1419.33,293.167 1420.83,294.667 1422,296.5C 1422.5,305.494 1422.67,314.494 1422.5,323.5C 1419.83,323.5 1417.17,323.5 1414.5,323.5C 1414.67,315.493 1414.5,307.493 1414,299.5C 1411.26,298.39 1408.43,298.223 1405.5,299C 1404.3,299.903 1403.47,301.069 1403,302.5C 1402.5,309.492 1402.33,316.492 1402.5,323.5C 1399.83,323.5 1397.17,323.5 1394.5,323.5C 1394.5,313.167 1394.5,302.833 1394.5,292.5 Z"/></g>
<g><path style="opacity:1" fill="#e6e6e6" d="M 1431.5,292.5 C 1433.95,291.527 1436.61,291.194 1439.5,291.5C 1439.5,293.167 1439.5,294.833 1439.5,296.5C 1438.57,295.432 1438.23,294.099 1438.5,292.5C 1436.17,292.5 1433.83,292.5 1431.5,292.5 Z"/></g>
<g><path style="opacity:1" fill="#dadada" d="M 1431.5,292.5 C 1433.83,292.5 1436.17,292.5 1438.5,292.5C 1438.23,294.099 1438.57,295.432 1439.5,296.5C 1443.3,291.752 1448.3,290.252 1454.5,292C 1456.33,293.167 1457.83,294.667 1459,296.5C 1459.5,305.494 1459.67,314.494 1459.5,323.5C 1456.83,323.5 1454.17,323.5 1451.5,323.5C 1451.67,315.493 1451.5,307.493 1451,299.5C 1448.26,298.39 1445.43,298.223 1442.5,299C 1441.3,299.903 1440.47,301.069 1440,302.5C 1439.5,309.492 1439.33,316.492 1439.5,323.5C 1436.83,323.5 1434.17,323.5 1431.5,323.5C 1431.5,313.167 1431.5,302.833 1431.5,292.5 Z"/></g>
<g><path style="opacity:1" fill="#dadada" d="M 1476.5,291.5 C 1490.74,289.412 1497.08,295.412 1495.5,309.5C 1488.83,309.5 1482.17,309.5 1475.5,309.5C 1475.66,316.088 1478.99,318.588 1485.5,317C 1487.3,316.028 1488.97,314.861 1490.5,313.5C 1496.68,315.677 1497.01,318.51 1491.5,322C 1480.03,327.07 1471.87,323.904 1467,312.5C 1465.33,303.177 1468.5,296.177 1476.5,291.5 Z"/></g>
<g><path style="opacity:1" fill="#dadada" d="M 1244.5,291.5 C 1247.17,291.5 1249.83,291.5 1252.5,291.5C 1252.33,299.174 1252.5,306.841 1253,314.5C 1254.67,317.379 1257.17,318.212 1260.5,317C 1262.49,315.681 1263.65,313.848 1264,311.5C 1264.5,304.842 1264.67,298.175 1264.5,291.5C 1267.17,291.5 1269.83,291.5 1272.5,291.5C 1272.5,302.167 1272.5,312.833 1272.5,323.5C 1269.83,323.5 1267.17,323.5 1264.5,323.5C 1264.63,318.728 1263.3,318.562 1260.5,323C 1253.51,326.081 1248.34,324.248 1245,317.5C 1244.5,308.84 1244.33,300.173 1244.5,291.5 Z"/></g>
<g><path style="opacity:1" fill="#dadada" d="M 1281.5,291.5 C 1284.17,291.5 1286.83,291.5 1289.5,291.5C 1289.34,293.199 1289.51,294.866 1290,296.5C 1292.23,292.139 1295.73,290.639 1300.5,292C 1301.45,294.432 1301.45,296.932 1300.5,299.5C 1297.81,299.336 1295.15,299.503 1292.5,300C 1291.3,300.903 1290.47,302.069 1290,303.5C 1289.5,310.158 1289.33,316.825 1289.5,323.5C 1286.83,323.5 1284.17,323.5 1281.5,323.5C 1281.5,312.833 1281.5,302.167 1281.5,291.5 Z"/></g>
<g><path style="opacity:1" fill="#e3e3e3" d="M 1510.5,292.5 C 1508.17,292.5 1505.83,292.5 1503.5,292.5C 1503.5,302.833 1503.5,313.167 1503.5,323.5C 1502.51,313.013 1502.17,302.346 1502.5,291.5C 1505.39,291.194 1508.05,291.527 1510.5,292.5 Z"/></g>
<g><path style="opacity:1" fill="#d9d9d9" d="M 1503.5,323.5 C 1503.5,313.167 1503.5,302.833 1503.5,292.5C 1505.83,292.5 1508.17,292.5 1510.5,292.5C 1510.34,293.873 1510.51,295.207 1511,296.5C 1513.23,292.139 1516.73,290.639 1521.5,292C 1522.45,294.432 1522.45,296.932 1521.5,299.5C 1518.81,299.336 1516.15,299.503 1513.5,300C 1512.79,301.255 1511.96,302.421 1511,303.5C 1510.5,310.158 1510.33,316.825 1510.5,323.5C 1508.17,323.5 1505.83,323.5 1503.5,323.5 Z"/></g>
<g><path style="opacity:1" fill="#fcfcfc" d="M 1479.5,297.5 C 1485.03,296.75 1488.03,299.083 1488.5,304.5C 1484.17,304.5 1479.83,304.5 1475.5,304.5C 1475.57,301.348 1476.9,299.014 1479.5,297.5 Z"/></g>
<g><path style="opacity:1" fill="#fdfdfd" d="M 1091.5,298.5 C 1100.1,297.936 1103.6,301.936 1102,310.5C 1101.11,316.027 1097.94,318.193 1092.5,317C 1087.78,313.746 1086.28,309.246 1088,303.5C 1089,301.677 1090.16,300.01 1091.5,298.5 Z"/></g>
<g><path style="opacity:1" fill="#fdfdfd" d="M 1129.5,298.5 C 1131.86,298.337 1134.19,298.503 1136.5,299C 1137.7,299.903 1138.53,301.069 1139,302.5C 1140.47,308.076 1139.3,312.909 1135.5,317C 1130.88,318.538 1127.71,317.038 1126,312.5C 1125.33,309.167 1125.33,305.833 1126,302.5C 1126.69,300.65 1127.86,299.316 1129.5,298.5 Z"/></g>
<g><path style="opacity:1" fill="#fdfdfd" d="M 1218.5,298.5 C 1222.95,297.617 1226.45,298.95 1229,302.5C 1229.66,306.572 1229.32,310.572 1228,314.5C 1221.74,319.317 1217.41,317.983 1215,310.5C 1213.75,305.738 1214.91,301.738 1218.5,298.5 Z"/></g>
<g><path style="opacity:1" fill="#eaeaea" d="M 979.5,302.5 C 979.047,303.458 978.381,304.292 977.5,305C 972.845,305.499 968.179,305.666 963.5,305.5C 963.818,310.032 963.485,314.366 962.5,318.5C 962.5,313.5 962.5,308.5 962.5,303.5C 968.227,303.74 973.894,303.407 979.5,302.5 Z"/></g>
<g><path style="opacity:1" fill="#fefefe" d="M 1329.5,304.5 C 1333.51,304.334 1337.51,304.501 1341.5,305C 1346.03,307.824 1346.69,311.49 1343.5,316C 1338.85,316.499 1334.18,316.666 1329.5,316.5C 1329.5,312.5 1329.5,308.5 1329.5,304.5 Z"/></g>
<g><path style="opacity:1" fill="#f5f5f5" d="M 942.5,304.5 C 947.167,304.5 951.833,304.5 956.5,304.5C 956.5,309.167 956.5,313.833 956.5,318.5C 955.515,314.366 955.182,310.032 955.5,305.5C 950.968,305.818 946.634,305.485 942.5,304.5 Z"/></g>
<g><path style="opacity:1" fill="#e6e6e6" d="M 1051.5,304.5 C 1054.34,306.402 1057.67,307.069 1061.5,306.5C 1058.04,307.482 1054.37,307.815 1050.5,307.5C 1050.26,306.209 1050.6,305.209 1051.5,304.5 Z"/></g>
<g><path style="opacity:1" fill="#fdfdfd" d="M 1375.5,308.5 C 1377.89,310.762 1378.06,313.428 1376,316.5C 1369.95,320.107 1367.28,318.441 1368,311.5C 1370.38,310.033 1372.88,309.033 1375.5,308.5 Z"/></g>
</svg>
